<?xml version="1.0" encoding="UTF-8"?><svg id="Layer_2" xmlns="http://www.w3.org/2000/svg" viewBox="0 0 178.62426 192.13445"><g id="_лой_3"><g><g><polyline points="39.83964 33.75791 85.38984 95.31601 102.82859 82.4122 167.42246 169.70664" fill="none" stroke="#b4483b" stroke-miterlimit="10" stroke-width="5.45474"/><polygon points="138.73826 168.44736 139.73655 163.07993 166.17292 168.02695 169.17585 141.29624 174.60063 141.91074 170.93693 174.46518 138.73826 168.44736" fill="#b4483b"/></g><g><g><g opacity=".5"><circle cx="29.18716" cy="28.88434" r="27.1436" fill="gray"/><g><path d="M23.90773,13.87121c3.17851-1.18889,6.75604-1.1916,9.99428-.21444,4.2154,1.30832,7.77393,4.48955,9.63326,8.48238,.51301,1.13732,1.00431,2.32349,1.05317,3.58838-2.36964-1.37347-4.96728-2.26378-7.57035-3.07537-4.16383-1.50104-8.52309-2.54336-12.46434-4.60627-.91746-.5483-2.08734-1.11017-2.33706-2.25292-.10043-.98803,.9446-1.53904,1.69105-1.92177" fill="gray"/><path d="M14.31247,23.48005c.92017-2.49721,2.42935-4.81527,4.47869-6.53347,.52116,4.28598,2.34521,8.42809,5.35815,11.54417,3.61281,3.75396,8.75924,6.05845,13.99524,5.97159,2.0792,.06515,4.11226-.4153,6.13988-.80345-1.99505,7.20934-9.89656,11.99476-17.21719,10.84387-4.41898-.56459-8.49866-3.18123-10.96059-6.87548-2.77679-4.0824-3.47709-9.50297-1.79419-14.14725Z" fill="gray"/></g><path d="M37.01809,22.65217c2.60307,.81159,5.20071,1.7019,7.57035,3.07537l.16014,.08414c.21987,1.65305,.38001,3.33866,.08686,4.99442-1.1916-.50487-2.15792-1.39247-3.16766-2.17692-1.94348-1.61776-3.92768-3.46895-4.6497-5.97702" fill="gray"/></g><g><circle cx="27.64909" cy="27.1436" r="27.1436" fill="#1b284f"/><g><path d="M22.36966,12.13047c3.17851-1.18889,6.75604-1.1916,9.99428-.21444,4.2154,1.30832,7.77393,4.48955,9.63326,8.48238,.51301,1.13732,1.00431,2.32349,1.05317,3.58838-2.36964-1.37347-4.96728-2.26378-7.57035-3.07537-4.16383-1.50104-8.52309-2.54336-12.46434-4.60627-.91746-.5483-2.08734-1.11017-2.33706-2.25292-.10043-.98803,.9446-1.53904,1.69105-1.92177" fill="#f7d85d"/><path d="M12.7744,21.73931c.92017-2.49721,2.42935-4.81527,4.47869-6.53347,.52116,4.28598,2.34521,8.42809,5.35815,11.54417,3.61281,3.75396,8.75924,6.05845,13.99524,5.97159,2.0792,.06515,4.11226-.4153,6.13988-.80345-1.99505,7.20934-9.89656,11.99476-17.21719,10.84387-4.41898-.56459-8.49866-3.18123-10.96059-6.87548-2.77679-4.0824-3.47709-9.50297-1.79419-14.14725Z" fill="#f7d85d"/></g><path d="M35.48002,20.91143c2.60307,.81159,5.20071,1.7019,7.57035,3.07537l.16014,.08414c.21987,1.65305,.38001,3.33866,.08686,4.99442-1.1916-.50487-2.15792-1.39247-3.16766-2.17692-1.94348-1.61776-3.92768-3.46895-4.6497-5.97702" fill="#ec7730"/></g></g><g><g opacity=".5"><circle cx="60.87921" cy="34.83959" r="16.81651" fill="gray"/><g><path d="M57.6084,25.53838c1.96921-.73656,4.18563-.73825,6.19184-.13285,2.6116,.81056,4.81625,2.78145,5.96818,5.25516,.31783,.70461,.62221,1.43949,.65248,2.22314-1.46808-.85091-3.07742-1.4025-4.69013-1.90531-2.57965-.92995-5.28038-1.57571-7.72214-2.85376-.5684-.33969-1.29319-.6878-1.4479-1.39577-.06222-.61212,.58522-.9535,1.04767-1.19061" fill="gray"/><path d="M51.66376,31.49142c.57008-1.54712,1.50508-2.98325,2.77472-4.04773,.32288,2.65533,1.45295,5.22153,3.31958,7.15206,2.23828,2.32572,5.42669,3.75344,8.67059,3.69963,1.28814,.04036,2.5477-.25729,3.8039-.49777-1.23601,4.46646-6.1313,7.43122-10.66671,6.7182-2.73773-.34978-5.26525-1.97089-6.79051-4.25962-1.72033-2.5292-2.15419-5.88746-1.11157-8.76477Z" fill="gray"/></g><path d="M65.73077,30.97852c1.6127,.50281,3.22204,1.0544,4.69013,1.90531l.09922,.05213c.13622,1.02413,.23543,2.06843,.05381,3.09424-.73824-.31279-1.33691-.86269-1.96249-1.34868-1.20406-1.00226-2.43335-2.14915-2.88067-3.703" fill="gray"/></g><g><circle cx="59.95334" cy="33.65231" r="16.90918" fill="#1b284f"/><g><path d="M56.6645,24.29985c1.98006-.74062,4.2087-.74231,6.22596-.13358,2.626,.81502,4.84279,2.79678,6.00107,5.28412,.31958,.7085,.62564,1.44743,.65608,2.23539-1.47617-.8556-3.09438-1.41023-4.71597-1.91581-2.59387-.93508-5.30948-1.58439-7.7647-2.86949-.57153-.34157-1.30032-.69159-1.45588-1.40346-.06256-.61549,.58844-.95875,1.05344-1.19717" fill="#f7d85d"/><path d="M50.68711,30.2857c.57322-1.55564,1.51337-2.99969,2.79001-4.07004,.32466,2.66996,1.46095,5.2503,3.33787,7.19148,2.25061,2.33854,5.45659,3.77413,8.71837,3.72002,1.29524,.04058,2.56174-.25871,3.82486-.50051-1.24282,4.49108-6.16509,7.47217-10.72549,6.75522-2.75282-.35171-5.29426-1.98176-6.82793-4.2831-1.72981-2.54314-2.16607-5.9199-1.1177-8.81306Z" fill="#f7d85d"/></g><path d="M64.83164,29.76997c1.62159,.50558,3.2398,1.06021,4.71597,1.91581l.09976,.05242c.13697,1.02977,.23673,2.07983,.05411,3.11129-.74231-.31451-1.34428-.86744-1.9733-1.35612-1.21069-1.00779-2.44676-2.16099-2.89654-3.7234" fill="#ec7730"/></g></g></g></g><g><g><rect x="5.57348" y="81.04146" width="87.40957" height="111.09299" rx="6.64566" ry="6.64566" fill="#386cb0" opacity=".26"/><rect y="76.45153" width="87.40957" height="111.09299" rx="6.64566" ry="6.64566" fill="#85d7ff"/><rect x="8.03397" y="138.60291" width="70.69891" height="6.30968" rx="2.45867" ry="2.45867" fill="#edf4fc"/><rect x="8.03397" y="124.7663" width="70.69891" height="6.30968" rx="2.45867" ry="2.45867" fill="#edf4fc"/><rect x="8.03397" y="112.14401" width="70.69891" height="6.30968" rx="2.45867" ry="2.45867" fill="#edf4fc"/><rect x="8.03397" y="151.89235" width="70.69891" height="6.30968" rx="2.45867" ry="2.45867" fill="#edf4fc"/><rect x="8.03397" y="165.18179" width="70.69891" height="6.30968" rx="2.45867" ry="2.45867" fill="#edf4fc"/><g><path d="M18.31295,86.78284h12.30327v3.61434h-4.14251v11.23657h-4.0286v-11.23657h-4.13216v-3.61434Z" fill="#edf4fc"/><path d="M45.73864,98.45437h-4.87781l-1.05634,3.17938h-4.34964l5.62346-14.85091h4.4532l5.62346,14.85091h-4.34964l-1.0667-3.17938Zm-1.05634-3.17938l-1.37739-4.34964-1.37739,4.34964h2.75477Z" fill="#edf4fc"/><path d="M62.14525,96.65238l-2.97225,4.98137h-4.4532l4.87781-7.7465-4.4532-7.10441h4.4532l2.54765,4.34964,2.54765-4.34964h4.4532l-4.4532,7.10441,4.87781,7.7465h-4.4532l-2.97225-4.98137Z" fill="#edf4fc"/></g></g><g><g><g opacity=".2"><circle cx="149.02263" cy="36.65753" r="29.60041" transform="translate(-3.05385 16.05992) rotate(-6.10626)" fill="#160101"/></g><circle cx="146.6091" cy="33.25268" r="29.60041" transform="translate(-2.70537 15.78387) rotate(-6.10626)" fill="#4a9b57"/></g><polyline points="163.43739 18.74237 140.34923 44.06142 128.2131 34.16213" fill="none" stroke="#fff" stroke-miterlimit="10" stroke-width="7.36474"/></g></g></g></svg>