<?xml version="1.0" encoding="UTF-8"?><svg id="Layer_2" xmlns="http://www.w3.org/2000/svg" xmlns:xlink="http://www.w3.org/1999/xlink" viewBox="0 0 600 457.14181"><defs><clipPath id="clippath"><path d="M600,93.14181V457.14181H244.65682s-27.98999-81.59009,18.81-134.59009c22.70001-25.70996,23.38-57.07007,18.06-82.55005-5.04999-24.1499-19.00995-45.37988-38.42999-60.59985-33.60999-26.33008-43.26996-61.42017-45.46997-86.26001h402.37314Z" clip-rule="evenodd" fill="none"/></clipPath><linearGradient id="linear-gradient" x1="349.59819" y1="237.50546" x2="583.94731" y2="237.50546" gradientTransform="matrix(1, 0, 0, 1, 0, 0)" gradientUnits="userSpaceOnUse"><stop offset="0" stop-color="#b4483b" stop-opacity="0"/><stop offset=".63781" stop-color="#b4483b"/></linearGradient><linearGradient id="linear-gradient-2" x1="349.59818" y1="307.10788" x2="583.9473" y2="307.10788" xlink:href="#linear-gradient"/><linearGradient id="linear-gradient-3" x1="207.62017" y1="114.15426" x2="277.18258" y2="114.15426" xlink:href="#linear-gradient"/><linearGradient id="linear-gradient-4" x1="207.62017" y1="134.81442" x2="277.18259" y2="134.81442" xlink:href="#linear-gradient"/><linearGradient id="linear-gradient-5" x1="291.41482" y1="114.11422" x2="362.50027" y2="114.11422" xlink:href="#linear-gradient"/><linearGradient id="linear-gradient-6" x1="291.41481" y1="135.22689" x2="362.50026" y2="135.22689" xlink:href="#linear-gradient"/><linearGradient id="linear-gradient-7" x1="269.18386" y1="172.24691" x2="363.05072" y2="172.24691" xlink:href="#linear-gradient"/><linearGradient id="linear-gradient-8" x1="269.18385" y1="200.12558" x2="363.05071" y2="200.12558" xlink:href="#linear-gradient"/><linearGradient id="linear-gradient-9" x1="235.14094" y1="241.74813" x2="351.12389" y2="241.74813" xlink:href="#linear-gradient"/><linearGradient id="linear-gradient-10" x1="235.14093" y1="276.1954" x2="351.12388" y2="276.1954" xlink:href="#linear-gradient"/><linearGradient id="linear-gradient-11" x1="191.51894" y1="319.76962" x2="394.74589" y2="319.76962" xlink:href="#linear-gradient"/><linearGradient id="linear-gradient-12" x1="191.51893" y1="380.12851" x2="394.74588" y2="380.12851" xlink:href="#linear-gradient"/><linearGradient id="linear-gradient-13" x1="338.77432" y1="92.16952" x2="533.30839" y2="92.16952" xlink:href="#linear-gradient"/><linearGradient id="linear-gradient-14" x1="338.77432" y1="149.94662" x2="533.30839" y2="149.94662" xlink:href="#linear-gradient"/></defs><g id="_лой_2"><rect y="92.43795" width="600" height="364" fill="#001a38"/><g><path d="M600,93.14181V457.14181H244.65682s-27.98999-81.59009,18.81-134.59009c22.70001-25.70996,23.38-57.07007,18.06-82.55005-5.04999-24.1499-19.00995-45.37988-38.42999-60.59985-33.60999-26.33008-43.26996-61.42017-45.46997-86.26001h402.37314Z" fill="#00c2ff" fill-rule="evenodd" opacity=".1"/><g><g clip-path="url(#clippath)"><g><g><line x1="355.26062" y1="132.13424" x2="566.00305" y2="342.87667" fill="none" stroke="url(#linear-gradient)" stroke-miterlimit="10" stroke-width="16.01578"/><polygon points="482.16133 351.66891 482.73086 335.64914 561.6455 338.54123 558.76454 259.61544 574.78413 259.04611 578.27381 355.16964 482.16133 351.66891" fill="url(#linear-gradient-2)"/></g><g><line x1="209.30096" y1="82.87667" x2="271.85614" y2="145.43185" fill="none" stroke="url(#linear-gradient-3)" stroke-miterlimit="10" stroke-width="4.754"/><polygon points="246.96921 148.04147 247.13828 143.28634 270.56268 144.14498 269.70752 120.71725 274.46265 120.54806 275.4985 149.08078 246.96921 148.04147" fill="url(#linear-gradient-4)"/></g><g><line x1="293.13242" y1="82.15182" x2="357.05721" y2="146.07663" fill="none" stroke="url(#linear-gradient-5)" stroke-miterlimit="10" stroke-width="4.85809"/><polygon points="331.62538 148.74362 331.79813 143.88424 355.73543 144.76168 354.86154 120.82101 359.72078 120.64816 360.77931 149.80563 331.62538 148.74362" fill="url(#linear-gradient-6)"/></g><g><line x1="271.4519" y1="130.04123" x2="355.86327" y2="214.4526" fill="none" stroke="url(#linear-gradient-7)" stroke-miterlimit="10" stroke-width="6.41501"/><polygon points="322.28107 217.97409 322.50919 211.55758 354.11789 212.71603 352.96394 181.10275 359.38046 180.87472 360.77823 219.37643 322.28107 217.97409" fill="url(#linear-gradient-8)"/></g><g><line x1="237.94336" y1="189.59835" x2="342.243" y2="293.89791" fill="none" stroke="url(#linear-gradient-9)" stroke-miterlimit="10" stroke-width="7.92645"/><polygon points="300.74844 298.24923 301.03033 290.32101 340.08638 291.75216 338.66055 252.69064 346.58888 252.4089 348.31598 299.9819 300.74844 298.24923" fill="url(#linear-gradient-10)"/></g><g><line x1="196.42938" y1="228.39206" x2="379.18468" y2="411.14718" fill="none" stroke="url(#linear-gradient-11)" stroke-miterlimit="10" stroke-width="13.88884"/><polygon points="306.47736 418.77169 306.97125 404.8796 375.40582 407.38766 372.90746 338.94332 386.79959 338.44943 389.82584 421.80758 306.47736 418.77169" fill="url(#linear-gradient-12)"/></g><g><line x1="343.47473" y1="4.7004" x2="518.4128" y2="179.63864" fill="none" stroke="url(#linear-gradient-13)" stroke-miterlimit="10" stroke-width="13.29476"/><polygon points="448.81548 186.93698 449.28824 173.63888 514.79558 176.03976 512.40408 110.52316 525.702 110.05026 528.5988 189.84298 448.81548 186.93698" fill="url(#linear-gradient-14)"/></g></g></g><g><g><path d="M407.15356,214.95594c9.67398-3.61845,20.56238-3.62671,30.41812-.65264,12.82981,3.98195,23.66037,13.66419,29.31935,25.81657,1.56138,3.46149,3.05668,7.07167,3.20539,10.92144-7.21212-4.18022-15.11818-6.88993-23.04077-9.36005-12.67284-4.5685-25.94049-7.74084-37.93591-14.01943-2.79232-1.66878-6.35294-3.37887-7.11298-6.85688-.30566-3.00712,2.87494-4.68416,5.1468-5.849" fill="#f7d85d"/><path d="M377.94986,244.20095c2.80058-7.6004,7.39387-14.65555,13.63115-19.88496,1.58617,13.0446,7.13777,25.65134,16.30781,35.13532,10.99579,11.42539,26.65922,18.43922,42.59527,18.17487,6.32816,.19827,12.51587-1.26398,18.68707-2.44534-6.07206,21.94202-30.12071,36.5067-52.40145,33.0039-13.4494-1.71835-25.86614-9.68224-33.35914-20.92588-8.45131-12.425-10.58273-28.92282-5.46072-43.05791Z" fill="#f7d85d"/></g><path d="M447.05566,241.68126c7.92259,2.47013,15.82865,5.17984,23.04077,9.36005l.48741,.2561c.66917,5.03114,1.15658,10.1614,.26436,15.2008-3.6267-1.5366-6.56774-4.23805-9.64094-6.62556-5.91508-4.92373-11.9541-10.55795-14.15161-18.19139" fill="#ec7730"/></g></g></g></g></svg>