<?xml version="1.0" encoding="UTF-8"?><svg id="Layer_2" xmlns="http://www.w3.org/2000/svg" viewBox="0 0 136.35768 136.35768"><g id="_лой_3"><g><circle cx="68.17884" cy="68.17884" r="68.17884" fill="#00c2ff"/><path d="M40.8925,95.57884c3.2,3.2,7.6,4.7,12.7,4.5,2.5-.1,5.1-.5,7.5-1.2,11-3.1,21.6-11.6,28.6-20.7,.3-.4,.6-.6,1-.7,.4-.1,.8-.1,1.2,0s.8,.3,1,.6c.3,.3,.5,.7,.5,1.1,.5,2.7,.6,5.2,.2,7.4-.4,1.9-1.2,3.6-2.5,4.8-2,2-4.9,2.9-8.3,2.8-1.6,0-3.4-.3-5.2-.8-2.1,1.5-4.3,2.9-6.6,4.1,4.1,1.7,8,2.6,11.6,2.7,5.1,.1,9.5-1.3,12.7-4.5,2.1-2.1,3.4-4.8,4.1-7.8,.6-3,.6-6.3-.1-9.8-.3-1.6-1-3-2.1-4.1s-2.4-1.9-4-2.3c-1.6-.4-3.1-.3-4.6,.2-1.4,.5-2.7,1.4-3.7,2.7-6.2,8-15.4,15.6-25.1,18.5-2.3,.7-4.4,1.1-6.4,1.1-3.4,.1-6.4-.8-8.3-2.8h0c-2-2-2.8-4.9-2.8-8.4,0-1.7,.3-3.4,.8-5.2-1.5-2.1-2.9-4.3-4.1-6.6-1.60001,4-2.50001,8-2.60001,11.59999-.1,5.1,1.3,9.6,4.5,12.8Zm24.8-7.6c-2.1,1.1-4.3,2.1-6.6,2.7-2.5-1.9-4.9-4-7.2-6.2-1.2-1.2-2.4-2.5-3.5-3.8h0c-3.4-4-6.2-8.3-8.2-12.5l-.1-.1-.1-.1-.1-.2v-.1l-.1-.2h0l-.1-.3-.1-.1-.1-.1v-.1l-.1-.2h0l-.1-.2,.1-.3v-.1l-.1-.1v-.1l-.1-.2h0l-.1-.2h0l-.1-.2c-1.2-3-2-6-2.4-8.9v-.1h0v-.2h0v-.2h0v-.3h0v-.2h0v-.4h0v-.2c0-.4,0-.7-.1-1.1-.1-5.1,1.3-9.6,4.5-12.8,3.1-3.39999,7.5-4.79999,12.6-4.69999,3.6,.1,7.6,1,11.6,2.7-2.3,1.2-4.5,2.6-6.6,4.1-1.8-.5-3.6-.7-5.2-.8-3.4-.1-6.4,.8-8.3,2.8-2,2-2.9,4.9-2.8,8.4,.1,2.5,.6,5.3,1.7,8.3h0c.8,2.1,1.8,4.3,3,6.5h0c.6,1.1,1.3,2.2,2.1,3.3h0l.1,.2,.1,.1,.1,.1,.1,.1,.1,.1,.1,.1,.1,.1c.2,.2,.3,.5,.5,.7l.1,.1,.1,.1h0l.1,.1,.1,.1,.1,.1,.1,.1,.1,.1,.1,.1h0v.1l.1,.1,.1,.1h0c1.6,2.1,3.4,4.2,5.4,6.2,2.1,2.1,4.3,4,6.5,5.6,.49999,.70003,1.49999,1.40002,2.49999,2.10003Zm-17.2-22.3c.6-1,1.3-2,2.1-3,1.6-2.2,3.5-4.4,5.6-6.5s4.3-4,6.5-5.6c1.2-.9,2.4-1.8,3.6-2.5l.2-.1,.1-.1h.1l.1-.1h0c.4-.3,.9-.5,1.3-.8,2.2-1.2,4.4-2.3,6.5-3,2.9-1.1,5.7-1.6,8.2-1.7,3.4-.1,6.4,.8,8.3,2.8h0c1.2,1.3,2.1,2.9,2.5,4.8,.5,2.2,.4,4.7-.2,7.4-.1,.4-.3,.8-.5,1.1-.3,.3-.6,.5-1,.6s-.9,.1-1.2,0c-.4-.1-.7-.4-1-.7-2.7-3.5-5.9-6.8-9.4-9.8h0c-1-.9-2.1-1.8-3.2-2.6-2.2,.7-4.4,1.6-6.5,2.7,2,1.3,4,2.8,5.9,4.4h0c3.1,2.7,6,5.7,8.5,9,1,1.3,2.3,2.2,3.7,2.7s3,.6,4.6,.2,2.9-1.2,4-2.3c1.1-1.1,1.8-2.5,2.1-4.1,.7-3.5,.8-6.8,.1-9.8-.6-3-2-5.7-4.1-7.8-3.3-3.4-7.7-4.8-12.8-4.7-10.3,.3-21.1,6.9-28.5,13.7h0c-.7,.6-1.4,1.3-2.1,2-2.3,2.3-4.3,4.7-6.2,7.2h0c.7,2.3,1.6,4.5,2.7,6.6Z" fill="#001a38" fill-rule="evenodd"/></g></g></svg>