<?xml version="1.0" encoding="UTF-8"?><svg id="Layer_2" xmlns="http://www.w3.org/2000/svg" viewBox="0 0 20.00687 16.30698"><g id="_лой_2"><g><path d="M19.98386,1.99831c-.44115,.68859-.99002,1.28322-1.63836,1.77504-.26027,.19743-.34673,.39272-.34584,.72197,.00661,2.44414-.69244,4.68384-2.03788,6.71972-1.14974,1.73975-2.6599,3.07573-4.54456,3.97726-1.0916,.52217-2.2418,.84723-3.44233,1.00351-.87158,.11347-1.74409,.14403-2.61936,.07332-1.41889-.11463-2.77577-.46786-4.06249-1.08043-.42954-.20449-.84981-.42674-1.29305-.72166,2.24874,.20647,4.23888-.33778,6.04602-1.69474-.20811-.02587-.37357-.03873-.53611-.06784-1.54669-.27703-2.60573-1.16064-3.21472-2.59776-.08381-.19778-.06137-.21137,.16371-.18172,.51491,.06782,1.02481,.0418,1.58673-.10046-.99199-.24286-1.77282-.72219-2.3709-1.47973-.59329-.75146-.89622-1.60534-.88817-2.60009,.57921,.28585,1.15249,.47792,1.8316,.48821-.39683-.29078-.71642-.58434-.97685-.9378-.47186-.64041-.74961-1.35119-.81121-2.14868-.06152-.79639,.09987-1.54152,.46101-2.24998,.06276-.12313,.09878-.14205,.19475-.02714,1.25587,1.50374,2.79532,2.62124,4.6102,3.3562,.94188,.38143,1.91898,.6334,2.92993,.74807,.22033,.02499,.44137,.04373,.66172,.06863,.11547,.01304,.17279,.01418,.14664-.14772-.19927-1.23373,.03335-2.37539,.83629-3.35031C11.67115,.32937,12.97008-.17519,14.5349,.05364c.87454,.12789,1.62056,.52325,2.24495,1.14676,.07412,.07401,.14001,.08478,.24273,.06197,.78908-.17523,1.539-.45155,2.24756-.84081,.05494-.03018,.1054-.07708,.20029-.07065-.30413,.92813-.88908,1.62545-1.67465,2.17858,.42266-.02039,.82468-.11811,1.22099-.23583,.31833-.09456,.63026-.21067,.94504-.31722l.02205,.02188Z" fill="#fff"/><path d="M19.96181,1.97643c.01422-.01468,.02958-.02618,.04496-.00331l-.02293,.02517-.02203-.02186Z" fill="#fff"/></g></g></svg>